<?xml version="1.0" encoding="UTF-8"?>
<svg width="136px" height="55px" viewBox="0 0 136 55" version="1.1" xmlns="http://www.w3.org/2000/svg" xmlns:xlink="http://www.w3.org/1999/xlink">
    <!-- Generator: Sketch 55.1 (78136) - https://sketchapp.com -->
    <title>asf_logo</title>
    <desc>Created with Sketch.</desc>
    <defs>
        <linearGradient x1="16.5257664%" y1="60.1600614%" x2="159.437977%" y2="27.6538398%" id="linearGradient-1">
            <stop stop-color="#F69923" offset="0%"></stop>
            <stop stop-color="#F79A23" offset="31.23%"></stop>
            <stop stop-color="#E97826" offset="83.83%"></stop>
        </linearGradient>
        <linearGradient x1="-72.458588%" y1="394.533342%" x2="61.308387%" y2="13.7723153%" id="linearGradient-2">
            <stop stop-color="#9E2064" offset="32.33%"></stop>
            <stop stop-color="#C92037" offset="63.02%"></stop>
            <stop stop-color="#CD2335" offset="75.14%"></stop>
            <stop stop-color="#E97826" offset="100%"></stop>
        </linearGradient>
        <linearGradient x1="-18.3719551%" y1="192.518694%" x2="122.898725%" y2="-136.459941%" id="linearGradient-3">
            <stop stop-color="#282662" offset="0%"></stop>
            <stop stop-color="#662E8D" offset="9.54839%"></stop>
            <stop stop-color="#9F2064" offset="78.82%"></stop>
            <stop stop-color="#CD2032" offset="94.87%"></stop>
        </linearGradient>
        <linearGradient x1="25.9004703%" y1="170.511437%" x2="67.8309296%" y2="-44.3738058%" id="linearGradient-4">
            <stop stop-color="#9E2064" offset="32.33%"></stop>
            <stop stop-color="#C92037" offset="63.02%"></stop>
            <stop stop-color="#CD2335" offset="75.14%"></stop>
            <stop stop-color="#E97826" offset="100%"></stop>
        </linearGradient>
        <linearGradient x1="43.6031662%" y1="77.345208%" x2="60.742392%" y2="-41.3932652%" id="linearGradient-5">
            <stop stop-color="#282662" offset="0%"></stop>
            <stop stop-color="#662E8D" offset="9.54839%"></stop>
            <stop stop-color="#9F2064" offset="78.82%"></stop>
            <stop stop-color="#CD2032" offset="94.87%"></stop>
        </linearGradient>
        <linearGradient x1="5.86560898%" y1="187.759753%" x2="81.5916403%" y2="-51.1464237%" id="linearGradient-6">
            <stop stop-color="#9E2064" offset="32.33%"></stop>
            <stop stop-color="#C92037" offset="63.02%"></stop>
            <stop stop-color="#CD2335" offset="75.14%"></stop>
            <stop stop-color="#E97826" offset="100%"></stop>
        </linearGradient>
        <linearGradient x1="-129.863039%" y1="309.180368%" x2="66.4595558%" y2="29.5351108%" id="linearGradient-7">
            <stop stop-color="#9E2064" offset="32.33%"></stop>
            <stop stop-color="#C92037" offset="63.02%"></stop>
            <stop stop-color="#CD2335" offset="75.14%"></stop>
            <stop stop-color="#E97826" offset="100%"></stop>
        </linearGradient>
        <linearGradient x1="-4553.3281%" y1="10768.2012%" x2="2860.80525%" y2="-6491.74639%" id="linearGradient-8">
            <stop stop-color="#9E2064" offset="32.33%"></stop>
            <stop stop-color="#C92037" offset="63.02%"></stop>
            <stop stop-color="#CD2335" offset="75.14%"></stop>
            <stop stop-color="#E97826" offset="100%"></stop>
        </linearGradient>
        <linearGradient x1="-15870.1734%" y1="120813.652%" x2="7798.02151%" y2="-58689.8032%" id="linearGradient-9">
            <stop stop-color="#9E2064" offset="32.33%"></stop>
            <stop stop-color="#C92037" offset="63.02%"></stop>
            <stop stop-color="#CD2335" offset="75.14%"></stop>
            <stop stop-color="#E97826" offset="100%"></stop>
        </linearGradient>
    </defs>
    <g id="框架图" stroke="none" stroke-width="1" fill="none" fill-rule="evenodd">
        <g id="头图修改" transform="translate(-359.000000, -13.000000)">
            <g id="1" transform="translate(-1.000000, 0.000000)">
                <g id="top-bar">
                    <g id="asf_logo" transform="translate(360.000000, 13.000000)">
                        <path d="M135.594174,15.9269767 C135.865315,16.2025736 136,16.5340103 136,16.921287 C136,17.3085636 135.865315,17.6400004 135.594174,17.9191998 C135.323032,18.1965979 134.995181,18.335297 134.608848,18.335297 C134.222515,18.335297 133.896436,18.1983992 133.627067,17.9228024 C133.35947,17.6472055 133.224785,17.3157688 133.224785,16.9284921 C133.224785,16.5412155 133.35947,16.2097787 133.630611,15.9305793 C133.901753,15.6531812 134.227832,15.5144821 134.612392,15.5144821 C134.995181,15.5144821 135.323032,15.6513799 135.594174,15.9269767 Z M135.47721,17.8021162 C135.712909,17.5571412 135.831644,17.2653327 135.831644,16.9248895 C135.831644,16.5844464 135.714681,16.2944392 135.480755,16.0512655 C135.246829,15.8098931 134.959737,15.6892069 134.619481,15.6892069 C134.279225,15.6892069 133.992134,15.8098931 133.756435,16.0530668 C133.520737,16.2962405 133.403774,16.5880489 133.403774,16.9302934 C133.403774,17.2725379 133.520737,17.5643463 133.752891,17.8057187 C133.985045,18.0470911 134.272136,18.1677773 134.612392,18.1677773 C134.952649,18.1677773 135.23974,18.0452899 135.47721,17.8021162 Z M135.282272,16.6528953 C135.282272,16.9050754 135.17417,17.0635886 134.956193,17.1284349 L135.354931,17.6778274 L135.032396,17.6778274 L134.672646,17.1680632 L134.343023,17.1680632 L134.343023,17.6778274 L134.082514,17.6778274 L134.082514,16.1539388 L134.646064,16.1539388 C134.872901,16.1539388 135.035941,16.1935672 135.135182,16.2728238 C135.234423,16.3520804 135.282272,16.4781704 135.282272,16.6528953 Z M134.947332,16.8672484 C135.000497,16.8240175 135.025308,16.7501647 135.025308,16.651094 C135.025308,16.5520232 134.998725,16.481773 134.94556,16.4421447 C134.892395,16.4025164 134.796698,16.3845035 134.662013,16.3845035 L134.343023,16.3845035 L134.343023,16.933896 L134.653152,16.933896 C134.796698,16.9320947 134.895939,16.9104793 134.947332,16.8672484 Z" id="形状" fill="#6D6E71" fill-rule="nonzero"></path>
                        <path d="M30.5418217,35.2601865 L38.1383931,15.5144821 L39.5965416,15.5144821 L47.193113,35.2601865 L45.2744007,35.2601865 L42.9206104,29.0866849 L34.7615323,29.0866849 L32.4332278,35.2601865 L30.5418217,35.2601865 Z M38.8811204,17.7946597 L35.1474592,27.5566699 L42.514659,27.5566699 L38.8811204,17.7946597 Z" id="形状" fill="#D22128" fill-rule="nonzero"></path>
                        <path d="M32.56,39.36 C32.96,39.36 33.28,39.45 33.51,39.635 C33.75,39.825 33.885,40.11 33.92,40.485 L33.515,40.485 C33.47,40.225 33.37,40.035 33.215,39.91 C33.055,39.78 32.83,39.72 32.54,39.72 C32.275,39.72 32.07,39.76 31.92,39.85 C31.75,39.95 31.665,40.1 31.665,40.305 C31.665,40.485 31.765,40.63 31.97,40.74 C32.06,40.79 32.28,40.865 32.625,40.965 C33.095,41.105 33.405,41.22 33.555,41.31 C33.85,41.49 34,41.74 34,42.065 C34,42.375 33.875,42.625 33.625,42.805 C33.375,42.98 33.04,43.07 32.615,43.07 C32.195,43.07 31.865,42.98 31.625,42.8 C31.345,42.585 31.19,42.26 31.16,41.82 L31.565,41.82 C31.6,42.13 31.71,42.36 31.89,42.505 C32.055,42.635 32.295,42.705 32.615,42.705 C32.905,42.705 33.145,42.65 33.325,42.54 C33.505,42.43 33.595,42.28 33.595,42.09 C33.595,41.865 33.475,41.69 33.24,41.565 C33.14,41.505 32.885,41.42 32.485,41.305 C32.055,41.175 31.78,41.075 31.665,41.015 C31.39,40.855 31.255,40.625 31.255,40.325 C31.255,40.015 31.385,39.77 31.65,39.6 C31.885,39.44 32.19,39.36 32.56,39.36 Z M38.2,39.36 C38.73,39.36 39.155,39.535 39.465,39.895 C39.755,40.235 39.905,40.675 39.905,41.22 C39.905,41.76 39.755,42.195 39.465,42.535 C39.155,42.89 38.73,43.07 38.195,43.07 C37.66,43.07 37.24,42.89 36.93,42.535 C36.635,42.195 36.49,41.755 36.49,41.22 C36.49,40.68 36.635,40.24 36.93,39.9 C37.24,39.54 37.66,39.36 38.2,39.36 Z M38.2,39.725 C37.79,39.725 37.465,39.865 37.23,40.15 C37.01,40.42 36.9,40.775 36.9,41.22 C36.9,41.66 37.01,42.015 37.23,42.285 C37.46,42.565 37.785,42.705 38.195,42.705 C38.605,42.705 38.93,42.565 39.16,42.295 C39.38,42.025 39.495,41.67 39.495,41.22 C39.495,40.765 39.38,40.405 39.16,40.135 C38.93,39.86 38.61,39.725 38.2,39.725 Z M42.595,39.43 L44.985,39.43 L44.985,39.785 L43.005,39.785 L43.005,40.985 L44.88,40.985 L44.88,41.34 L43.005,41.34 L43.005,43 L42.595,43 L42.595,39.43 Z M47.325,39.43 L50.25,39.43 L50.25,39.785 L48.99,39.785 L48.99,43 L48.585,43 L48.585,39.785 L47.325,39.785 L47.325,39.43 Z M52.48,39.43 L52.94,39.43 L53.725,42.425 L53.745,42.425 L54.56,39.43 L55.005,39.43 L55.815,42.425 L55.835,42.425 L56.62,39.43 L57.08,39.43 L56.055,43 L55.6,43 L54.79,40.025 L54.775,40.025 L53.96,43 L53.505,43 L52.48,39.43 Z M60.63,39.43 L61.105,39.43 L62.51,43 L62.065,43 L61.685,42 L60.045,42 L59.665,43 L59.225,43 L60.63,39.43 Z M60.175,41.655 L61.555,41.655 L60.88,39.87 L60.86,39.87 L60.175,41.655 Z M64.99,39.43 L66.53,39.43 C66.885,39.43 67.165,39.51 67.37,39.675 C67.58,39.845 67.69,40.095 67.69,40.425 C67.69,40.625 67.635,40.8 67.525,40.955 C67.405,41.115 67.245,41.215 67.04,41.265 L67.04,41.275 C67.38,41.35 67.57,41.565 67.61,41.925 L67.665,42.475 C67.685,42.695 67.75,42.87 67.855,43 L67.41,43 C67.33,42.88 67.28,42.725 67.265,42.525 L67.22,42.05 C67.2,41.84 67.125,41.685 66.995,41.595 C66.875,41.505 66.705,41.465 66.48,41.465 L65.4,41.465 L65.4,43 L64.99,43 L64.99,39.43 Z M65.4,39.785 L65.4,41.11 L66.48,41.11 C66.74,41.11 66.945,41.045 67.085,40.925 C67.21,40.81 67.275,40.65 67.275,40.44 C67.275,40.22 67.21,40.055 67.09,39.95 C66.96,39.84 66.755,39.785 66.48,39.785 L65.4,39.785 Z M70.49,39.43 L73.02,39.43 L73.02,39.785 L70.9,39.785 L70.9,40.98 L72.9,40.98 L72.9,41.335 L70.9,41.335 L70.9,42.645 L73.105,42.645 L73.105,43 L70.49,43 L70.49,39.43 Z M79.58,39.43 L81.97,39.43 L81.97,39.785 L79.99,39.785 L79.99,40.985 L81.865,40.985 L81.865,41.34 L79.99,41.34 L79.99,43 L79.58,43 L79.58,39.43 Z M86.145,39.36 C86.675,39.36 87.1,39.535 87.41,39.895 C87.7,40.235 87.85,40.675 87.85,41.22 C87.85,41.76 87.7,42.195 87.41,42.535 C87.1,42.89 86.675,43.07 86.14,43.07 C85.605,43.07 85.185,42.89 84.875,42.535 C84.58,42.195 84.435,41.755 84.435,41.22 C84.435,40.68 84.58,40.24 84.875,39.9 C85.185,39.54 85.605,39.36 86.145,39.36 Z M86.145,39.725 C85.735,39.725 85.41,39.865 85.175,40.15 C84.955,40.42 84.845,40.775 84.845,41.22 C84.845,41.66 84.955,42.015 85.175,42.285 C85.405,42.565 85.73,42.705 86.14,42.705 C86.55,42.705 86.875,42.565 87.105,42.295 C87.325,42.025 87.44,41.67 87.44,41.22 C87.44,40.765 87.325,40.405 87.105,40.135 C86.875,39.86 86.555,39.725 86.145,39.725 Z M90.54,39.43 L90.95,39.43 L90.95,41.635 C90.95,41.985 91.025,42.25 91.185,42.43 C91.35,42.615 91.61,42.71 91.965,42.71 C92.315,42.71 92.575,42.615 92.745,42.43 C92.9,42.25 92.98,41.985 92.98,41.635 L92.98,39.43 L93.39,39.43 L93.39,41.63 C93.39,42.095 93.27,42.45 93.035,42.695 C92.79,42.945 92.435,43.07 91.965,43.07 C91.495,43.07 91.14,42.945 90.9,42.7 C90.66,42.45 90.54,42.095 90.54,41.63 L90.54,39.43 Z M96.23,39.43 L96.66,39.43 L98.68,42.335 L98.695,42.335 L98.695,39.43 L99.105,39.43 L99.105,43 L98.685,43 L96.655,40.065 L96.64,40.065 L96.64,43 L96.23,43 L96.23,39.43 Z M101.945,39.43 L103.225,39.43 C103.79,39.43 104.215,39.59 104.505,39.92 C104.77,40.22 104.905,40.655 104.905,41.215 C104.905,41.765 104.76,42.2 104.475,42.51 C104.175,42.835 103.745,43 103.185,43 L101.945,43 L101.945,39.43 Z M102.355,39.785 L102.355,42.645 L103.115,42.645 C103.58,42.645 103.93,42.52 104.165,42.275 C104.385,42.035 104.5,41.68 104.5,41.215 C104.5,40.735 104.395,40.38 104.19,40.15 C103.97,39.905 103.63,39.785 103.16,39.785 L102.355,39.785 Z M108.64,39.43 L109.115,39.43 L110.52,43 L110.075,43 L109.695,42 L108.055,42 L107.675,43 L107.235,43 L108.64,39.43 Z M108.185,41.655 L109.565,41.655 L108.89,39.87 L108.87,39.87 L108.185,41.655 Z M112.725,39.43 L115.65,39.43 L115.65,39.785 L114.39,39.785 L114.39,43 L113.985,43 L113.985,39.785 L112.725,39.785 L112.725,39.43 Z M118.245,39.43 L118.65,39.43 L118.65,43 L118.245,43 L118.245,39.43 Z M123.08,39.36 C123.61,39.36 124.035,39.535 124.345,39.895 C124.635,40.235 124.785,40.675 124.785,41.22 C124.785,41.76 124.635,42.195 124.345,42.535 C124.035,42.89 123.61,43.07 123.075,43.07 C122.54,43.07 122.12,42.89 121.81,42.535 C121.515,42.195 121.37,41.755 121.37,41.22 C121.37,40.68 121.515,40.24 121.81,39.9 C122.12,39.54 122.54,39.36 123.08,39.36 Z M123.08,39.725 C122.67,39.725 122.345,39.865 122.11,40.15 C121.89,40.42 121.78,40.775 121.78,41.22 C121.78,41.66 121.89,42.015 122.11,42.285 C122.34,42.565 122.665,42.705 123.075,42.705 C123.485,42.705 123.81,42.565 124.04,42.295 C124.26,42.025 124.375,41.67 124.375,41.22 C124.375,40.765 124.26,40.405 124.04,40.135 C123.81,39.86 123.49,39.725 123.08,39.725 Z M127.475,39.43 L127.905,39.43 L129.925,42.335 L129.94,42.335 L129.94,39.43 L130.35,39.43 L130.35,43 L129.93,43 L127.9,40.065 L127.885,40.065 L127.885,43 L127.475,43 L127.475,39.43 Z" id="SOFTWAREFOUNDATION" fill="#6D6E71" fill-rule="nonzero"></path>
                        <path d="M31.085,9.43 L34.01,9.43 L34.01,9.785 L32.75,9.785 L32.75,13 L32.345,13 L32.345,9.785 L31.085,9.785 L31.085,9.43 Z M36.575,9.43 L36.985,9.43 L36.985,10.98 L39.05,10.98 L39.05,9.43 L39.46,9.43 L39.46,13 L39.05,13 L39.05,11.335 L36.985,11.335 L36.985,13 L36.575,13 L36.575,9.43 Z M42.295,9.43 L44.825,9.43 L44.825,9.785 L42.705,9.785 L42.705,10.98 L44.705,10.98 L44.705,11.335 L42.705,11.335 L42.705,12.645 L44.91,12.645 L44.91,13 L42.295,13 L42.295,9.43 Z" id="THE" fill="#6D6E71" fill-rule="nonzero"></path>
                        <path d="M49.9683282,35.2601865 L49.9683282,15.5144821 L58.0623794,15.5144821 C61.4206954,15.5144821 63.8444043,18.6576435 63.8444043,21.7156942 C63.8444043,24.9419871 61.5872397,27.9723273 58.2289236,27.9723273 L51.8688921,27.9723273 L51.8688921,35.2582072 L49.9683282,35.2582072 L49.9683282,35.2601865 Z M51.8688921,26.2483389 L58.117241,26.2483389 C60.4292672,26.2483389 61.9164095,24.1067137 61.9164095,21.7156942 C61.9164095,19.2395639 60.1000974,17.2384705 57.9526561,17.2384705 L51.8688921,17.2384705 L51.8688921,26.2483389 Z" id="形状" fill="#D22128" fill-rule="nonzero"></path>
                        <path d="M62.4567967,35.2601865 L70.0533681,15.5144821 L71.5115166,15.5144821 L79.108088,35.2601865 L77.1893757,35.2601865 L74.8355855,29.0866849 L66.6765073,29.0866849 L64.3482028,35.2601865 L62.4567967,35.2601865 Z M70.7960954,17.7946597 L67.0624343,27.5566699 L74.429634,27.5566699 L70.7960954,17.7946597 Z" id="形状" fill="#D22128" fill-rule="nonzero"></path>
                        <path d="M87.501076,15.5144821 C90.6378136,15.5144821 92.9292269,17.2692654 94.0244268,19.7657814 L92.6297305,20.6988031 C91.5097203,18.1203061 89.3175483,17.2438904 87.4000625,17.2438904 C83.1663529,17.2438904 80.8519014,21.4132087 80.8519014,25.3346323 C80.8519014,29.6405856 83.715725,33.5346821 87.4744935,33.5346821 C89.4664105,33.5346821 91.8074445,32.4376985 92.9274547,29.9138555 L94.3717717,30.7356173 C93.2269511,33.6420382 90.0884414,35.2601865 87.3752521,35.2601865 C82.5195116,35.2601865 79.108088,30.1597985 79.108088,25.2233724 C79.1098602,20.5348411 82.1721666,15.5144821 87.501076,15.5144821 Z" id="路径" fill="#D22128" fill-rule="nonzero"></path>
                        <polygon id="路径" fill="#D22128" fill-rule="nonzero" points="115.185886 15.5144821 115.185886 35.2601865 113.276955 35.2601865 113.276955 26.0266549 101.802033 26.0266549 101.802033 35.2601865 99.9222021 35.2601865 99.9222021 15.5144821 101.802033 15.5144821 101.802033 24.3026665 113.276955 24.3026665 113.276955 15.5144821"></polygon>
                        <polygon id="路径" fill="#D22128" fill-rule="nonzero" points="130.44957 33.5360253 130.44957 35.2601865 117.961101 35.2601865 117.961101 15.5144821 130.214782 15.5144821 130.214782 17.2386433 119.768594 17.2386433 119.768594 24.3589741 128.880592 24.3589741 128.880592 25.9999955 119.768594 25.9999955 119.768594 33.5380048 130.44957 33.5380048"></polygon>
                        <path d="M26.2279871,0.844144017 C25.3372405,1.4330527 23.0923456,3.01252497 20.8285684,4.96634883 L22.1358303,7.54577461 C23.9054415,5.12921222 26.7410096,3.66900491 26.7410096,3.66900491 C26.695784,3.72394042 24.8666117,4.96634883 22.3872026,7.89588003 C24.0526824,7.80358837 27.0659738,7.44977041 29.1542141,7.05203731 C29.7755737,3.16260311 28.062571,-0.366634654 26.2279871,0.844144017 Z" id="路径" fill="url(#linearGradient-1)" fill-rule="nonzero"></path>
                        <path d="M22.3432243,16.8727658 C22.3578838,16.8666336 22.3725432,16.8605014 22.3872026,16.8543692 L22.0964574,16.9340879 C22.0793547,16.9524845 22.0622521,16.9770133 22.0451494,16.9954099 C22.1453221,16.9524845 22.2454948,16.909559 22.3432243,16.8727658 Z" id="路径"></path>
                        <path d="M20.999595,22.495999 C20.8888821,22.5531777 20.773212,22.5989206 20.6575418,22.6370398 C20.7748644,22.5989206 20.8888821,22.5531777 20.999595,22.495999 Z" id="路径"></path>
                        <path d="M10.0530713,33.7991123 C10.0723181,33.75549 10.091565,33.7099711 10.1086733,33.6663489 C10.4978878,32.7559716 10.8828252,31.8702503 11.2634855,31.0091851 C11.6911937,30.0419092 12.1146248,29.1049793 12.5316403,28.1964986 C12.9721797,27.2406024 13.4063036,26.3150521 13.8340118,25.4217444 C14.2831054,24.4848144 14.7257834,23.5820236 15.1599072,22.7133719 C15.5127665,22.0059329 15.8613486,21.3212533 16.2056537,20.6593331 C16.321135,20.4374287 16.4344776,20.2193174 16.5478203,20.0031028 C16.7723671,19.5725702 16.9969139,19.1534173 17.2171836,18.7418509 C17.420345,18.362527 17.6235064,17.9907896 17.8223907,17.6266387 C17.8886855,17.5052551 17.9549803,17.3838714 18.0212751,17.2643844 C18.0319678,17.2454182 18.0426605,17.226452 18.0533532,17.2055892 L17.835222,17.226452 L17.6641387,16.9248895 C17.6470304,16.9552355 17.6299221,16.9836847 17.6128137,17.012134 C17.3027253,17.5583604 16.9947754,18.1102767 16.6911025,18.6659861 C16.5157422,18.9865148 16.3403818,19.3108367 16.1650215,19.633262 C15.6817112,20.5322596 15.2069551,21.4388437 14.7407531,22.3511176 C14.2681356,23.2728746 13.8062107,24.2003215 13.35284,25.129665 C12.9080235,26.041939 12.4696226,26.9542129 12.0440529,27.8645902 C11.6163447,28.7749675 11.1993292,29.6796549 10.7930064,30.5805492 C10.3674368,31.5193757 9.95469837,32.4525125 9.55265266,33.3723729 C9.46283393,33.5791044 9.37087667,33.7877325 9.28105795,33.9944641 C8.9602768,34.7379389 8.64591127,35.4700339 8.3400999,36.1945425 L8.61169461,36.670594 L8.85548829,36.6478346 C8.86404245,36.6269718 8.87259662,36.6042123 8.88328932,36.5833495 C9.27891941,35.6312466 9.66813387,34.7019031 10.0530713,33.7991123 Z" id="路径"></path>
                        <path d="M20.8222808,22.5735714 L20.8222808,22.5735714 C20.8363014,22.5735714 20.8363014,22.5735714 20.8363014,22.5594674 C20.8363014,22.5735714 20.8363014,22.5735714 20.8222808,22.5735714 Z" id="路径"></path>
                        <path d="M19.4409608,25.3011182 C18.9911553,25.3576046 18.5328628,25.414091 18.0618401,25.4705775 C18.0575966,25.4705775 18.0575966,25.4735504 18.0533532,25.4735504 C18.2909863,25.4497667 18.5286194,25.42301 18.7577656,25.3962532 C18.9911553,25.3665235 19.216058,25.3338209 19.4409608,25.3011182 Z" id="路径" fill="#BE202E" fill-rule="nonzero"></path>
                        <path d="M19.4409608,25.3011182 C18.9911553,25.3576046 18.5328628,25.414091 18.0618401,25.4705775 C18.0575966,25.4705775 18.0575966,25.4735504 18.0533532,25.4735504 C18.2909863,25.4497667 18.5286194,25.42301 18.7577656,25.3962532 C18.9911553,25.3665235 19.216058,25.3338209 19.4409608,25.3011182 Z" id="路径" fill="#BE202E" fill-rule="nonzero" opacity="0.35"></path>
                        <path d="M19.4516759,22.6489037 C19.4463183,22.6489037 19.4463183,22.6489037 19.4516759,22.6489037 C19.4463183,22.6527355 19.4409608,22.6527355 19.4409608,22.6527355 C19.5373968,22.6450719 19.6284753,22.6335764 19.7195538,22.6220809 C20.0945829,22.5837626 20.4642544,22.5377807 20.8285684,22.4803033 C20.3731759,22.5377807 19.9177835,22.5914263 19.4516759,22.6489037 L19.4516759,22.6489037 L19.4516759,22.6489037 Z" id="路径" fill="#BE202E" fill-rule="nonzero"></path>
                        <path d="M19.4516759,22.6489037 C19.4463183,22.6489037 19.4463183,22.6489037 19.4516759,22.6489037 C19.4463183,22.6527355 19.4409608,22.6527355 19.4409608,22.6527355 C19.5373968,22.6450719 19.6284753,22.6335764 19.7195538,22.6220809 C20.0945829,22.5837626 20.4642544,22.5377807 20.8285684,22.4803033 C20.3731759,22.5377807 19.9177835,22.5914263 19.4516759,22.6489037 L19.4516759,22.6489037 L19.4516759,22.6489037 Z" id="路径" fill="#BE202E" fill-rule="nonzero" opacity="0.35"></path>
                        <path d="M22.1358303,7.54577461 L20.8285684,4.96634883 C16.3265242,9.44905854 13.2791613,14.2364388 13.2633256,14.2620752 L15.2352696,18.0889953 C17.4685515,13.7147798 19.7687384,10.2003729 22.1358303,7.54577461 Z" id="路径" fill="url(#linearGradient-2)" fill-rule="nonzero"></path>
                        <path d="M7.97987476,37.6653858 C7.70539079,38.4728079 7.42897383,39.2946852 7.15062388,40.1351476 C7.14675791,40.1475377 7.14289194,40.1599278 7.13902597,40.1723179 C7.10036625,40.290024 7.05977355,40.409795 7.02111384,40.5275011 C6.83361422,41.0933161 6.67317641,41.6033756 6.30011016,42.7618508 C6.91286664,43.0612785 7.40384501,43.8459854 7.86776159,44.7360083 C7.81750396,43.8129451 7.46183458,42.9477025 6.78142361,42.2765715 C9.79881433,42.4211228 12.3986801,41.6075056 13.7421052,39.2492548 C13.8619503,39.0386229 13.9721305,38.817666 14.0707128,38.5843189 C13.4598893,39.4123912 12.7021589,39.7634443 11.2775484,39.6787786 C11.2736824,39.6808436 11.2717494,39.6808436 11.2678835,39.6829086 C11.2717494,39.6808436 11.2736824,39.6808436 11.2775484,39.6787786 C13.3767709,38.6751797 14.4302481,37.7108162 15.3600143,36.1145571 C15.5803746,35.7366588 15.794936,35.3215901 16.0133634,34.863156 C14.17896,36.8765488 12.0507427,37.4506239 9.81041224,37.014905 L8.13064764,37.2110818 C8.08425599,37.3618281 8.03206537,37.5125744 7.97987476,37.6653858 Z" id="路径" fill="url(#linearGradient-3)" fill-rule="nonzero"></path>
                        <path d="M8.50315273,33.9368172 C8.83895479,33.0457676 9.18368776,32.1418575 9.53913782,31.2324358 C9.87851224,30.3615956 10.2268176,29.4834065 10.5840538,28.601543 C10.94129,27.7196795 11.305671,26.8359788 11.6771967,25.9522781 C12.0558671,25.0520425 12.4434684,24.1554812 12.8364283,23.2607572 C13.2258158,22.3770565 13.622348,21.4988675 14.0260249,20.6280273 C14.1707056,20.3138634 14.3171725,20.0015367 14.4654255,19.6910473 C14.7190632,19.1527431 14.9762733,18.6181134 15.2352696,18.0889953 C15.2495591,18.0595998 15.2638485,18.0320416 15.278138,18.0044834 L13.3579932,14.1040746 C13.3258419,14.1573539 13.2954768,14.2106331 13.2633256,14.2620752 C12.8149941,15.0134963 12.370235,15.7814525 11.9344068,16.5659435 C11.49322,17.3577835 11.059178,18.1661583 10.6358531,18.9855565 C10.2786168,19.6763496 9.92852531,20.3744915 9.58915089,21.0781451 C9.521276,21.2214479 9.45340112,21.3629135 9.38731241,21.5043791 C8.96934602,22.389917 8.59067561,23.2460595 8.249515,24.0672949 C7.86191369,24.9987632 7.52253926,25.8898128 7.22246082,26.7330948 C7.02598089,27.2879339 6.84736277,27.8244008 6.68482029,28.3388212 C6.5508567,28.7797529 6.42225165,29.2188475 6.30079133,29.657942 C6.01500234,30.6922944 5.76672316,31.7229724 5.56488468,32.7499759 L7.49217418,36.670594 C7.74759809,35.9706149 8.00838054,35.2596124 8.2780939,34.5394239 C8.35132733,34.3391674 8.42813312,34.1389109 8.50315273,33.9368172 Z" id="路径" fill="url(#linearGradient-4)" fill-rule="nonzero"></path>
                        <path d="M4.98311152,36.3774029 C4.97918062,36.4237646 4.97524972,36.4681944 4.97328427,36.5145561 C4.31092767,35.4714196 2.53612643,34.4514639 2.54005733,34.4630543 C3.80973795,36.2730893 4.77477384,38.0696021 4.91628623,39.8332755 C4.23624057,39.9704286 3.30461733,39.77146 2.2275508,39.3831814 C3.34982268,40.3973419 4.19300067,40.6774434 4.5212308,40.752781 C3.48936962,40.8165282 2.41623399,41.5119525 1.33523656,42.3136223 C2.91742371,41.6800134 4.19496612,41.428888 5.11086576,41.6317201 C3.65839831,45.6690446 2.2039654,50.1274873 0.747567048,54.8602361 C1.19372417,54.7308099 1.4590599,54.4371863 1.61039954,54.0373174 C1.86983893,53.1796274 3.59157301,47.5544172 6.28817024,40.163602 C6.36482278,39.953043 6.44147533,39.742484 6.52009332,39.5280615 C6.54171327,39.4701095 6.56333322,39.4102257 6.58495317,39.3503419 C6.8699434,38.5757165 7.09302044,37.7373438 7.39963062,36.9298789 C7.46842136,36.7463642 7.53917756,36.5628494 7.60993375,36.3774029 L5.56488468,32.4227573 C5.68894471,32.4227573 5.07745312,35.0715506 4.98311152,36.3774029 Z" id="路径" fill="url(#linearGradient-5)" fill-rule="nonzero"></path>
                        <path d="M8.3400999,36.670594 L9.90796529,36.488676 C9.87729358,36.4829312 9.84481766,36.4791013 9.81414596,36.4714416 C11.6887284,36.2225011 14.1821576,34.7365179 15.7933242,32.900103 C16.5348578,32.0537054 17.2096353,31.0560285 17.8320904,29.8879231 C18.2957745,29.0185463 18.730591,28.0534231 19.1455611,26.9868089 C19.5082089,26.0542395 19.856423,25.0450731 20.1920075,23.9497349 C19.7607994,24.1910157 19.2682479,24.3671889 18.7233741,24.4897443 C18.6277506,24.5108085 18.5303228,24.5318727 18.432895,24.549107 C18.333663,24.5682563 18.234431,24.5835757 18.1333948,24.5988951 C18.1351991,24.5988951 18.1351991,24.5969802 18.1370033,24.5969802 C19.8852905,23.8827125 20.9876676,22.50588 21.7887404,20.8169146 C21.3286648,21.1501118 20.5817186,21.5848002 19.6850223,21.7954422 C19.5641397,21.8241661 19.4378444,21.8471452 19.3115492,21.8662945 C19.2808774,21.8720393 19.2484015,21.877784 19.2177298,21.8816139 C19.8275555,21.6096943 20.3399534,21.3090508 20.783791,20.9528744 C20.8794145,20.8762773 20.9714296,20.7977653 21.0598363,20.7173384 C21.1951527,20.5928681 21.3250564,20.4626531 21.4477432,20.3247783 C21.5271288,20.2366917 21.6029059,20.1466902 21.6768789,20.0528587 C21.8500838,19.8326421 22.0142676,19.5951912 22.1658219,19.338591 C22.2127316,19.260079 22.257837,19.1796521 22.3029425,19.0973102 C22.3606775,18.9785848 22.4166082,18.8617742 22.4707347,18.7468786 C22.7143042,18.2260185 22.9109639,17.7606913 23.0661267,17.3528119 C23.143708,17.1498296 23.2122683,16.9602519 23.2700033,16.7840786 C23.2934581,16.7132263 23.3151087,16.6462039 23.3367594,16.5810963 C23.3981028,16.3857738 23.4486209,16.2115155 23.4883137,16.0583213 C23.5478529,15.8285301 23.5839372,15.646612 23.6037836,15.5144821 C23.5442444,15.5642702 23.4756841,15.6140583 23.399907,15.6619314 C22.8712711,15.9970436 21.9655537,16.301517 21.2366497,16.4432216 L22.6764156,16.274708 L21.2366497,16.4432216 C21.2258244,16.4451365 21.2149991,16.4470515 21.2041738,16.4489664 C21.132005,16.4623709 21.0580321,16.4738604 20.9840592,16.4872649 C20.9966887,16.4815201 21.0093182,16.4738604 21.0219478,16.4681157 L16.3030553,17.1358825 C16.2958384,17.1569467 10.8921654,28.7824185 8.3400999,36.670594 Z" id="路径" fill="url(#linearGradient-6)" fill-rule="nonzero"></path>
                        <path d="M22.3872026,7.89588003 C20.8605486,9.47813542 18.5910061,12.6231692 16.2549835,17.2384705 L23.1785717,17.1000415 C26.689579,10.4144955 29.0944511,7.3817554 29.1542141,7.05203731 C27.0425891,7.39900809 24.0745104,7.81536747 22.3872026,7.89588003 Z" id="路径" fill="url(#linearGradient-7)" fill-rule="nonzero"></path>
                        <path d="M18.2243798,26.7272214 C18.1110489,26.7814678 17.997718,26.824865 17.8823266,26.8682622 L17.8823266,26.8682622 C17.997718,26.8302896 18.1110489,26.7814678 18.2243798,26.7272214 Z" id="路径" fill="#BE202E" fill-rule="nonzero"></path>
                        <path d="M18.2243798,26.7272214 C18.1110489,26.7814678 17.997718,26.824865 17.8823266,26.8682622 L17.8823266,26.8682622 C17.997718,26.8302896 18.1110489,26.7814678 18.2243798,26.7272214 Z" id="路径" fill="#BE202E" fill-rule="nonzero" opacity="0.35"></path>
                        <path d="M18.2243798,26.7272214 C18.1110489,26.7814678 17.997718,26.824865 17.8823266,26.8682622 L17.8823266,26.8682622 C17.997718,26.8302896 18.1110489,26.7814678 18.2243798,26.7272214 Z" id="路径" fill="url(#linearGradient-8)" fill-rule="nonzero"></path>
                        <path d="M20.7430551,22.6229357 C20.8022566,22.5947275 20.8581692,22.5524153 20.9140817,22.5101031 C20.8581692,22.5524153 20.8022566,22.5947275 20.7430551,22.6229357 L20.7430551,22.6229357 Z" id="路径" fill="#BE202E" fill-rule="nonzero"></path>
                        <path d="M20.7430551,22.6229357 C20.8022566,22.5947275 20.8581692,22.5524153 20.9140817,22.5101031 C20.8581692,22.5524153 20.8022566,22.5947275 20.7430551,22.6229357 L20.7430551,22.6229357 Z" id="路径" fill="#BE202E" fill-rule="nonzero" opacity="0.35"></path>
                        <path d="M20.7430551,22.6229357 C20.8022566,22.5947275 20.8581692,22.5524153 20.9140817,22.5101031 C20.8581692,22.5524153 20.8022566,22.5947275 20.7430551,22.6229357 L20.7430551,22.6229357 Z" id="路径" fill="url(#linearGradient-9)" fill-rule="nonzero"></path>
                    </g>
                </g>
            </g>
        </g>
    </g>
</svg>